HIERARCHY
ROOT hip
{
  OFFSET 0 0 0
  CHANNELS 6 Xposition Yposition Zposition Zrotation Yrotation Xrotation
  JOINT abdomen
  {
    OFFSET 0 20.6881 -0.73152
    CHANNELS 3 Zrotation Xrotation Yrotation
    JOINT chest
    {
      OFFSET 0 11.7043 -0.48768
      CHANNELS 3 Zrotation Xrotation Yrotation
      JOINT neck
      {
        OFFSET 0 22.1894 -2.19456
        CHANNELS 3 Zrotation Xrotation Yrotation
        JOINT head
        {
          OFFSET -0.24384 7.07133 1.2192
          CHANNELS 3 Zrotation Xrotation Yrotation
          JOINT leftEye
          {
            OFFSET 4.14528 8.04674 8.04672
            CHANNELS 3 Zrotation Xrotation Yrotation
            End Site
            {
              OFFSET 1 0 0
            }
          }
          JOINT rightEye
          {
            OFFSET -3.6576 8.04674 8.04672
            CHANNELS 3 Zrotation Xrotation Yrotation
            End Site
            {
              OFFSET 1 0 0
            }
          }
        }
      }
      JOINT rCollar
      {
        OFFSET -2.68224 19.2634 -4.8768
        CHANNELS 3 Zrotation Xrotation Yrotation
        JOINT rShldr
        {
          OFFSET -8.77824 -1.95073 1.46304
          CHANNELS 3 Zrotation Xrotation Yrotation
          JOINT rForeArm
          {
            OFFSET -28.1742 -1.7115 0.48768
            CHANNELS 3 Zrotation Xrotation Yrotation
            JOINT rHand
            {
              OFFSET -22.5879 0.773209 7.07136
              CHANNELS 3 Zrotation Xrotation Yrotation
              JOINT rThumb1
              {
                OFFSET -1.2192 -0.487915 3.41376
                CHANNELS 3 Zrotation Xrotation Yrotation
                JOINT rThumb2
                {
                  OFFSET -3.37035 -0.52449 3.41376
                  CHANNELS 3 Zrotation Xrotation Yrotation
                  End Site
                  {
                    OFFSET -1.78271 -1.18214 1.43049
                  }
                }
              }
              JOINT rIndex1
              {
                OFFSET -7.75947 0.938293 5.60832
                CHANNELS 3 Zrotation Xrotation Yrotation
                JOINT rIndex2
                {
                  OFFSET -2.54057 -0.884171 1.56538
                  CHANNELS 3 Zrotation Xrotation Yrotation
                  End Site
                  {
                    OFFSET -1.62519 -0.234802 1.16502
                  }
                }
              }
              JOINT rMid1
              {
                OFFSET -8.24714 1.18213 3.41376
                CHANNELS 3 Zrotation Xrotation Yrotation
                JOINT rMid2
                {
                  OFFSET -3.10165 -0.590103 1.0647
                  CHANNELS 3 Zrotation Xrotation Yrotation
                  End Site
                  {
                    OFFSET -2.48547 -0.328903 0.83742
                  }
                }
              }
              JOINT rRing1
              {
                OFFSET -8.82822 0.546677 1.51678
                CHANNELS 3 Zrotation Xrotation Yrotation
                JOINT rRing2
                {
                  OFFSET -2.60934 -0.819778 -0.0198488
                  CHANNELS 3 Zrotation Xrotation Yrotation
                  End Site
                  {
                    OFFSET -2.33842 -0.294052 0.168128
                  }
                }
              }
              JOINT rPinky1
              {
                OFFSET -8.27202 -0.0477905 -0.4584
                CHANNELS 3 Zrotation Xrotation Yrotation
                JOINT rPinky2
                {
                  OFFSET -1.82734 -0.647385 -0.700984
                  CHANNELS 3 Zrotation Xrotation Yrotation
                  End Site
                  {
                    OFFSET -1.69225 -0.51767 -0.607171
                  }
                }
              }
            }
          }
        }
      }
      JOINT lCollar
      {
        OFFSET 2.68224 19.2634 -4.8768
        CHANNELS 3 Zrotation Xrotation Yrotation
        JOINT lShldr
        {
          OFFSET 8.77824 -1.95073 1.46304
          CHANNELS 3 Zrotation Xrotation Yrotation
          JOINT lForeArm
          {
            OFFSET 28.1742 -1.7115 0.48768
            CHANNELS 3 Zrotation Xrotation Yrotation
            JOINT lHand
            {
              OFFSET 22.5879 0.773209 7.07136
              CHANNELS 3 Zrotation Xrotation Yrotation
              JOINT lThumb1
              {
                OFFSET 1.2192 -0.487915 3.41376
                CHANNELS 3 Zrotation Xrotation Yrotation
                JOINT lThumb2
                {
                  OFFSET 3.37035 -0.52449 3.41376
                  CHANNELS 3 Zrotation Xrotation Yrotation
                  End Site
                  {
                    OFFSET 1.78271 -1.18214 1.43049
                  }
                }
              }
              JOINT lIndex1
              {
                OFFSET 7.75947 0.938293 5.60832
                CHANNELS 3 Zrotation Xrotation Yrotation
                JOINT lIndex2
                {
                  OFFSET 2.54057 -0.884171 1.56538
                  CHANNELS 3 Zrotation Xrotation Yrotation
                  End Site
                  {
                    OFFSET 1.62519 -0.234802 1.16502
                  }
                }
              }
              JOINT lMid1
              {
                OFFSET 8.24714 1.18213 3.41376
                CHANNELS 3 Zrotation Xrotation Yrotation
                JOINT lMid2
                {
                  OFFSET 3.10165 -0.590103 1.0647
                  CHANNELS 3 Zrotation Xrotation Yrotation
                  End Site
                  {
                    OFFSET 2.48547 -0.328903 0.83742
                  }
                }
              }
              JOINT lRing1
              {
                OFFSET 8.82822 0.546677 1.51678
                CHANNELS 3 Zrotation Xrotation Yrotation
                JOINT lRing2
                {
                  OFFSET 2.60934 -0.819778 -0.0198488
                  CHANNELS 3 Zrotation Xrotation Yrotation
                  End Site
                  {
                    OFFSET 2.33842 -0.294052 0.168128
                  }
                }
              }
              JOINT lPinky1
              {
                OFFSET 8.27202 -0.0477905 -0.4584
                CHANNELS 3 Zrotation Xrotation Yrotation
                JOINT lPinky2
                {
                  OFFSET 1.82734 -0.647385 -0.700984
                  CHANNELS 3 Zrotation Xrotation Yrotation
                  End Site
                  {
                    OFFSET 1.69225 -0.51767 -0.607171
                  }
                }
              }
            }
          }
        }
      }
    }
  }
  JOINT rButtock
  {
    OFFSET -8.77824 4.35084 1.2192
    CHANNELS 3 Zrotation Xrotation Yrotation
    JOINT rThigh
    {
      OFFSET 0 -1.70687 -2.19456
      CHANNELS 3 Zrotation Xrotation Yrotation
      JOINT rShin
      {
        OFFSET 0 -36.8199 0.73152
        CHANNELS 3 Zrotation Xrotation Yrotation
        JOINT rFoot
        {
          OFFSET 0.73152 -45.1104 -5.12064
          CHANNELS 3 Zrotation Xrotation Yrotation
          End Site
          {
            OFFSET -1.1221 -3.69964 12.103
          }
        }
      }
    }
  }
  JOINT lButtock
  {
    OFFSET 8.77824 4.35084 1.2192
    CHANNELS 3 Zrotation Xrotation Yrotation
    JOINT lThigh
    {
      OFFSET 0 -1.70687 -2.19456
      CHANNELS 3 Zrotation Xrotation Yrotation
      JOINT lShin
      {
        OFFSET 0 -36.8199 0.73152
        CHANNELS 3 Zrotation Xrotation Yrotation
        JOINT lFoot
        {
          OFFSET -0.73152 -45.1104 -5.12064
          CHANNELS 3 Zrotation Xrotation Yrotation
          End Site
          {
            OFFSET 1.1221 -3.69964 12.103
          }
        }
      }
    }
  }
}
MOTION
Frames:	8
Frame Time:	0.00833333
43.7877 70.8483 162.955 178.346 -8.1271 -177.509 0.433455 15.4881 -1.40042 -1.22507 -2.16481 -0.642207 -6.20404 -12.783 -2.29458 12.8918 -6.38382 -1.04466 -0.0 0.0 0.0 -0.0 0.0 0.0 -1.43131e-14 -1.64514e-14 1.09634e-13 35.5273 -18.968 56.5338 -26.1239 -23.7567 57.2855 -0.0966146 8.83212 1.2513 -4.58088e-10 -1.3382e-09 -5.88378e-10 -7.96152e-10 -2.31125e-09 -1.01343e-09 -4.58089e-10 -1.33819e-09 -5.88388e-10 7.73091 5.47488 0.417314 -4.58092e-10 -1.3382e-09 -5.88383e-10 2.90554 0.965183 0.102902 -4.5809e-10 -1.3382e-09 -5.88376e-10 10.2786 0.731801 0.0259123 -4.58093e-10 -1.3382e-09 -5.88368e-10 2.22167 -0.733487 -0.20892 -1.41727e-14 -1.64462e-14 1.09392e-13 -26.0455 -15.8848 -51.123 26.9743 -26.2528 -61.2834 0.0790433 7.99509 -1.13106 2.75207e-10 8.1992e-10 -3.27962e-10 4.76113e-10 1.4238e-09 -5.69067e-10 2.75203e-10 8.19926e-10 -3.27952e-10 -7.73091 5.47488 -0.417314 2.75207e-10 8.19931e-10 -3.27971e-10 -2.90554 0.965183 -0.102902 2.75202e-10 8.19917e-10 -3.27964e-10 -10.2786 0.731801 -0.0259123 2.75215e-10 8.19919e-10 -3.27977e-10 -2.22167 -0.733487 0.20892 -2.03217e-16 0.0 -3.88251e-19 -23.1648 -30.4263 -17.8647 -0.572904 52.0675 1.49137 -5.0747 -12.9123 -17.2871 2.03217e-16 0.0 3.88251e-19 13.3342 -35.4952 5.38191 0.608163 51.1713 -1.22482 2.24699 -12.7536 7.31067
43.7855 70.8257 162.941 178.342 -8.1272 -177.505 0.427673 15.4751 -1.39946 -1.22885 -2.16838 -0.642104 -6.18639 -12.8661 -2.27404 12.8703 -6.40317 -1.00495 -0.0 0.0 0.0 -0.0 0.0 0.0 4.00619e-14 -3.02193e-14 -1.96362e-14 35.7348 -18.9761 56.5573 -26.1406 -23.8007 57.3564 -0.0991685 8.94748 1.26791 -1.73466e-10 2.43472e-10 1.93812e-10 -2.9922e-10 4.23699e-10 3.35869e-10 -1.73465e-10 2.43476e-10 1.93804e-10 7.73091 5.47488 0.417314 -1.73469e-10 2.43469e-10 1.93808e-10 2.90554 0.965183 0.102902 -1.73467e-10 2.43473e-10 1.93813e-10 10.2786 0.731801 0.0259123 -1.73471e-10 2.43472e-10 1.93821e-10 2.22167 -0.733487 -0.20892 4.01037e-14 -3.02109e-14 -1.98567e-14 -26.1689 -15.8837 -51.1206 26.9938 -26.3172 -61.3859 0.0782494 7.95527 -1.12535 4.35456e-10 2.21758e-10 -1.26169e-10 7.53867e-10 3.88934e-10 -2.20729e-10 4.35452e-10 2.21774e-10 -1.26164e-10 -7.73091 5.47488 -0.417314 4.35455e-10 2.21773e-10 -1.26182e-10 -2.90554 0.965183 -0.102902 4.35451e-10 2.21756e-10 -1.2617e-10 -10.2786 0.731801 -0.0259123 4.35464e-10 2.21758e-10 -1.26181e-10 -2.22167 -0.733487 0.20892 -2.03217e-16 0.0 -3.88251e-19 -23.1879 -30.4492 -17.8772 -0.574862 52.1239 1.49436 -5.08134 -12.9253 -17.2949 2.03217e-16 0.0 3.88251e-19 13.3366 -35.5233 5.38801 0.610171 51.2312 -1.22766 2.25042 -12.7764 7.31367
43.7833 70.8049 162.926 178.337 -8.1285 -177.502 0.422817 15.4626 -1.39912 -1.23317 -2.17201 -0.642127 -6.16924 -12.9468 -2.25384 12.8522 -6.41702 -0.966482 -0.0 0.0 0.0 -0.0 0.0 0.0 9.29376e-14 -3.84209e-14 -1.5832e-13 35.942 -18.9803 56.5789 -26.1562 -23.842 57.4228 -0.101698 9.05913 1.284 1.71557e-10 1.83991e-09 9.43327e-10 3.01879e-10 3.1834e-09 1.62832e-09 1.71558e-10 1.83992e-09 9.4332e-10 7.73091 5.47488 0.417314 1.71555e-10 1.8399e-09 9.43323e-10 2.90554 0.965183 0.102902 1.71556e-10 1.83991e-09 9.43326e-10 10.2786 0.731801 0.0259123 1.71551e-10 1.83991e-09 9.43333e-10 2.22167 -0.733487 -0.20892 9.28711e-14 -3.84099e-14 -1.58521e-13 -26.2889 -15.877 -51.1144 27.013 -26.3811 -61.4878 0.0773129 7.90784 -1.11856 5.69454e-10 -5.17076e-10 1.53874e-10 9.86496e-10 -8.89711e-10 2.63024e-10 5.6945e-10 -5.17051e-10 1.53873e-10 -7.73091 5.47488 -0.417314 5.69453e-10 -5.17058e-10 1.53859e-10 -2.90554 0.965183 -0.102902 5.69449e-10 -5.17077e-10 1.53873e-10 -10.2786 0.731801 -0.0259123 5.69462e-10 -5.17075e-10 1.53866e-10 -2.22167 -0.733487 0.20892 -2.03217e-16 0.0 -3.88251e-19 -23.208 -30.4698 -17.8857 -0.576727 52.1777 1.49724 -5.08909 -12.9378 -17.3068 2.03217e-16 0.0 3.88251e-19 13.3375 -35.5495 5.39157 0.612118 51.2892 -1.23042 2.25403 -12.7989 7.3173
43.7798 70.788 162.91 178.335 -8.1311 -177.499 0.422141 15.4514 -1.40032 -1.238 -2.17469 -0.642284 -6.15388 -13.0264 -2.23617 12.8353 -6.42715 -0.932599 -0.0 0.0 0.0 -0.0 0.0 0.0 1.18942e-13 -3.18118e-14 -2.37647e-13 36.1408 -18.9829 56.5968 -26.1701 -23.8791 57.4826 -0.10364 9.14316 1.29612 4.49568e-10 2.62869e-09 1.23997e-09 7.84237e-10 4.54552e-09 2.13894e-09 4.4957e-10 2.62869e-09 1.23997e-09 7.73091 5.47488 0.417314 4.49567e-10 2.62868e-09 1.23997e-09 2.90554 0.965183 0.102902 4.49568e-10 2.62869e-09 1.23997e-09 10.2786 0.731801 0.0259123 4.49561e-10 2.62869e-09 1.23998e-09 2.22167 -0.733487 -0.20892 1.18812e-13 -3.18003e-14 -2.37846e-13 -26.4009 -15.8676 -51.1073 27.0312 -26.4422 -61.5854 0.0765145 7.86709 -1.11272 5.94713e-10 -1.16164e-09 4.52141e-10 1.03131e-09 -2.00571e-09 7.78655e-10 5.94708e-10 -1.16162e-09 4.52138e-10 -7.73091 5.47488 -0.417314 5.94712e-10 -1.16162e-09 4.52125e-10 -2.90554 0.965183 -0.102902 5.94707e-10 -1.16164e-09 4.5214e-10 -10.2786 0.731801 -0.0259123 5.94721e-10 -1.16164e-09 4.52135e-10 -2.22167 -0.733487 0.20892 -2.03217e-16 0.0 -3.88251e-19 -23.223 -30.4857 -17.8911 -0.578423 52.2268 1.49993 -5.09747 -12.9494 -17.3215 2.03217e-16 0.0 3.88251e-19 13.3385 -35.5732 5.39149 0.613973 51.3443 -1.23306 2.25741 -12.8217 7.32001
43.7754 70.7725 162.894 178.336 -8.1348 -177.5 0.426649 15.4425 -1.40313 -1.24377 -2.17653 -0.642523 -6.14088 -13.1052 -2.2214 12.8204 -6.43342 -0.903678 -0.0 0.0 0.0 -0.0 0.0 0.0 1.03891e-13 2.03286e-15 -2.32733e-13 36.3343 -18.9833 56.6114 -26.1826 -23.9124 57.5363 -0.104892 9.19687 1.30387 6.54095e-10 2.18638e-09 8.28196e-10 1.13493e-09 3.77701e-09 1.42636e-09 6.54098e-10 2.18638e-09 8.28189e-10 7.73091 5.47488 0.417314 6.54094e-10 2.18637e-09 8.28192e-10 2.90554 0.965183 0.102902 6.54097e-10 2.18638e-09 8.28195e-10 10.2786 0.731801 0.0259123 6.54089e-10 2.18638e-09 8.28205e-10 2.22167 -0.733487 -0.20892 1.03768e-13 2.04141e-15 -2.32955e-13 -26.5065 -15.8549 -51.0984 27.0488 -26.5019 -61.6804 0.0758896 7.83513 -1.10814 4.65407e-10 -1.74531e-09 8.14585e-10 8.09355e-10 -3.01688e-09 1.40566e-09 4.65402e-10 -1.74529e-09 8.14583e-10 -7.73091 5.47488 -0.417314 4.65406e-10 -1.7453e-09 8.14571e-10 -2.90554 0.965183 -0.102902 4.654e-10 -1.74531e-09 8.14583e-10 -10.2786 0.731801 -0.0259123 4.65414e-10 -1.74531e-09 8.14578e-10 -2.22167 -0.733487 0.20892 -2.03217e-16 0.0 -3.88251e-19 -23.2317 -30.4958 -17.8922 -0.579926 52.2707 1.50239 -5.1066 -12.9602 -17.3396 2.03217e-16 0.0 3.88251e-19 13.3393 -35.5932 5.38658 0.615726 51.3966 -1.23558 2.26064 -12.8453 7.32186
43.771 70.7562 162.877 178.339 -8.1424 -177.5 0.434557 15.4352 -1.40711 -1.25035 -2.17795 -0.642856 -6.12949 -13.1824 -2.20844 12.8082 -6.4351 -0.878108 -0.0 0.0 0.0 -0.0 0.0 0.0 6.37898e-14 5.48628e-14 -1.82438e-13 36.5249 -18.9806 56.6233 -26.1938 -23.9424 57.5846 -0.105701 9.23179 1.30891 8.43922e-10 1.01966e-09 -2.00709e-11 1.45735e-09 1.75437e-09 -4.00686e-11 8.43926e-10 1.01966e-09 -2.00785e-11 7.73091 5.47488 0.417314 8.43921e-10 1.01965e-09 -2.00765e-11 2.90554 0.965183 0.102902 8.43927e-10 1.01965e-09 -2.00709e-11 10.2786 0.731801 0.0259123 8.43918e-10 1.01965e-09 -2.00578e-11 2.22167 -0.733487 -0.20892 6.37098e-14 5.4866e-14 -1.82699e-13 -26.607 -15.8378 -51.0868 27.0661 -26.5607 -61.7739 0.0753001 7.80491 -1.10381 2.33474e-10 -2.36138e-09 1.25256e-09 4.10357e-10 -4.08459e-09 2.16356e-09 2.33468e-10 -2.36137e-09 1.25257e-09 -7.73091 5.47488 -0.417314 2.33472e-10 -2.36137e-09 1.25256e-09 -2.90554 0.965183 -0.102902 2.33463e-10 -2.36138e-09 1.25256e-09 -10.2786 0.731801 -0.0259123 2.33477e-10 -2.36138e-09 1.25256e-09 -2.22167 -0.733487 0.20892 -2.03217e-16 0.0 -3.88251e-19 -23.2354 -30.5015 -17.8889 -0.581275 52.3104 1.50467 -5.11666 -12.9703 -17.3614 2.03217e-16 0.0 3.88251e-19 13.3393 -35.6103 5.37773 0.617394 51.4465 -1.23799 2.26387 -12.8694 7.32353
43.767 70.7403 162.86 178.345 -8.1525 -177.5 0.444947 15.4279 -1.41246 -1.25687 -2.17838 -0.643395 -6.11903 -13.2583 -2.1973 12.7963 -6.43304 -0.856256 -0.0 0.0 0.0 -0.0 0.0 0.0 1.85475e-14 1.0491e-13 -1.13604e-13 36.7041 -18.977 56.6314 -26.2034 -23.9681 57.626 -0.106008 9.24536 1.31086 9.89525e-10 -2.98802e-10 -9.33771e-10 1.70302e-09 -5.30421e-10 -1.6193e-09 9.89529e-10 -2.98802e-10 -9.3378e-10 7.73091 5.47488 0.417314 9.89524e-10 -2.98807e-10 -9.33778e-10 2.90554 0.965183 0.102902 9.89532e-10 -2.98803e-10 -9.3377e-10 10.2786 0.731801 0.0259123 9.89521e-10 -2.98803e-10 -9.33754e-10 2.22167 -0.733487 -0.20892 1.85178e-14 1.04908e-13 -1.1391e-13 -26.6983 -15.8183 -51.0749 27.082 -26.6153 -61.8609 0.0747572 7.77696 -1.09981 -3.69321e-11 -2.86479e-09 1.65417e-09 -5.53112e-11 -4.9577e-09 2.85884e-09 -3.69384e-11 -2.8648e-09 1.65418e-09 -7.73091 5.47488 -0.417314 -3.69343e-11 -2.86479e-09 1.65417e-09 -2.90554 0.965183 -0.102902 -3.69453e-11 -2.86479e-09 1.65417e-09 -10.2786 0.731801 -0.0259123 -3.6931e-11 -2.86479e-09 1.65416e-09 -2.22167 -0.733487 0.20892 -2.03217e-16 0.0 -3.88251e-19 -23.2358 -30.5043 -17.8841 -0.582485 52.3464 1.50679 -5.12726 -12.9797 -17.3854 2.03217e-16 0.0 3.88251e-19 13.3396 -35.6264 5.36691 0.618978 51.4936 -1.24028 2.26681 -12.8928 7.32437
43.7619 70.7252 162.841 178.35 -8.1673 -177.499 0.456897 15.4189 -1.41942 -1.26242 -2.17727 -0.644253 -6.10881 -13.333 -2.188 12.7823 -6.4281 -0.838488 -0.0 0.0 0.0 -0.0 0.0 0.0 -1.19264e-14 1.30405e-13 -5.30755e-14 36.8635 -18.9745 56.6349 -26.2111 -23.9887 57.6592 -0.105757 9.23504 1.30937 1.06138e-09 -1.19631e-09 -1.54185e-09 1.82348e-09 -2.08537e-09 -2.67027e-09 1.06138e-09 -1.19631e-09 -1.54186e-09 7.73091 5.47488 0.417314 1.06138e-09 -1.19631e-09 -1.54186e-09 2.90554 0.965183 0.102902 1.06139e-09 -1.19631e-09 -1.54185e-09 10.2786 0.731801 0.0259123 1.06137e-09 -1.19631e-09 -1.54183e-09 2.22167 -0.733487 -0.20892 -1.19286e-14 1.30401e-13 -5.34234e-14 -26.7762 -15.7983 -51.0652 27.0956 -26.6624 -61.9363 0.0742718 7.75184 -1.09621 -2.81654e-10 -3.1105e-09 1.90749e-09 -4.77282e-10 -5.38508e-09 3.29802e-09 -2.8166e-10 -3.11051e-09 1.9075e-09 -7.73091 5.47488 -0.417314 -2.81656e-10 -3.1105e-09 1.90749e-09 -2.90554 0.965183 -0.102902 -2.81668e-10 -3.1105e-09 1.90748e-09 -10.2786 0.731801 -0.0259123 -2.81655e-10 -3.1105e-09 1.90747e-09 -2.22167 -0.733487 0.20892 -2.03217e-16 0.0 -3.88251e-19 -23.2343 -30.506 -17.8806 -0.583565 52.3791 1.50876 -5.138 -12.9888 -17.4101 2.03217e-16 0.0 3.88251e-19 13.3413 -35.6435 5.35614 0.620479 51.5376 -1.24242 2.26914 -12.9149 7.32371
